<mxfile host="app.diagrams.net" agent="Mozilla/5.0 (Macintosh; Intel Mac OS X 10_15_7) AppleWebKit/537.36 (KHTML, like Gecko) Chrome/128.0.0.0 Safari/537.36" version="24.7.13">
  <diagram id="C5RBs43oDa-KdzZeNtuy" name="Page-1">
    <mxGraphModel dx="954" dy="1781" grid="1" gridSize="10" guides="1" tooltips="1" connect="1" arrows="1" fold="1" page="1" pageScale="1" pageWidth="827" pageHeight="1169" math="0" shadow="0">
      <root>
        <mxCell id="WIyWlLk6GJQsqaUBKTNV-0" />
        <mxCell id="WIyWlLk6GJQsqaUBKTNV-1" parent="WIyWlLk6GJQsqaUBKTNV-0" />
        <mxCell id="lOS8NXBK1U9mnEE9n6vC-5" value="" style="edgeStyle=orthogonalEdgeStyle;rounded=0;orthogonalLoop=1;jettySize=auto;html=1;" edge="1" parent="WIyWlLk6GJQsqaUBKTNV-1" source="lOS8NXBK1U9mnEE9n6vC-0" target="lOS8NXBK1U9mnEE9n6vC-4">
          <mxGeometry relative="1" as="geometry" />
        </mxCell>
        <mxCell id="lOS8NXBK1U9mnEE9n6vC-0" value="SNEACO&lt;div&gt;VENDOR PANEL&lt;/div&gt;" style="whiteSpace=wrap;html=1;aspect=fixed;" vertex="1" parent="WIyWlLk6GJQsqaUBKTNV-1">
          <mxGeometry x="80" y="280" width="80" height="80" as="geometry" />
        </mxCell>
        <mxCell id="lOS8NXBK1U9mnEE9n6vC-7" value="" style="edgeStyle=orthogonalEdgeStyle;rounded=0;orthogonalLoop=1;jettySize=auto;html=1;" edge="1" parent="WIyWlLk6GJQsqaUBKTNV-1" source="lOS8NXBK1U9mnEE9n6vC-4" target="lOS8NXBK1U9mnEE9n6vC-6">
          <mxGeometry relative="1" as="geometry" />
        </mxCell>
        <mxCell id="lOS8NXBK1U9mnEE9n6vC-9" value="" style="edgeStyle=orthogonalEdgeStyle;rounded=0;orthogonalLoop=1;jettySize=auto;html=1;" edge="1" parent="WIyWlLk6GJQsqaUBKTNV-1" source="lOS8NXBK1U9mnEE9n6vC-4" target="lOS8NXBK1U9mnEE9n6vC-8">
          <mxGeometry relative="1" as="geometry" />
        </mxCell>
        <mxCell id="lOS8NXBK1U9mnEE9n6vC-4" value="AUTHENTICATION&lt;div&gt;&lt;br&gt;&lt;/div&gt;" style="whiteSpace=wrap;html=1;" vertex="1" parent="WIyWlLk6GJQsqaUBKTNV-1">
          <mxGeometry x="220" y="290" width="120" height="60" as="geometry" />
        </mxCell>
        <mxCell id="lOS8NXBK1U9mnEE9n6vC-11" value="" style="edgeStyle=orthogonalEdgeStyle;rounded=0;orthogonalLoop=1;jettySize=auto;html=1;" edge="1" parent="WIyWlLk6GJQsqaUBKTNV-1" source="lOS8NXBK1U9mnEE9n6vC-6" target="lOS8NXBK1U9mnEE9n6vC-10">
          <mxGeometry relative="1" as="geometry" />
        </mxCell>
        <mxCell id="lOS8NXBK1U9mnEE9n6vC-6" value="PHONE NO," style="whiteSpace=wrap;html=1;" vertex="1" parent="WIyWlLk6GJQsqaUBKTNV-1">
          <mxGeometry x="360" y="170" width="120" height="60" as="geometry" />
        </mxCell>
        <mxCell id="lOS8NXBK1U9mnEE9n6vC-13" value="" style="edgeStyle=orthogonalEdgeStyle;rounded=0;orthogonalLoop=1;jettySize=auto;html=1;entryX=0.558;entryY=1;entryDx=0;entryDy=0;entryPerimeter=0;" edge="1" parent="WIyWlLk6GJQsqaUBKTNV-1" source="lOS8NXBK1U9mnEE9n6vC-8" target="lOS8NXBK1U9mnEE9n6vC-10">
          <mxGeometry relative="1" as="geometry">
            <mxPoint x="640" y="360" as="targetPoint" />
            <Array as="points">
              <mxPoint x="630" y="420" />
              <mxPoint x="630" y="350" />
            </Array>
          </mxGeometry>
        </mxCell>
        <mxCell id="lOS8NXBK1U9mnEE9n6vC-8" value="LAUNDRY ID" style="whiteSpace=wrap;html=1;" vertex="1" parent="WIyWlLk6GJQsqaUBKTNV-1">
          <mxGeometry x="360" y="390" width="120" height="60" as="geometry" />
        </mxCell>
        <mxCell id="lOS8NXBK1U9mnEE9n6vC-15" value="" style="edgeStyle=orthogonalEdgeStyle;rounded=0;orthogonalLoop=1;jettySize=auto;html=1;" edge="1" parent="WIyWlLk6GJQsqaUBKTNV-1" source="lOS8NXBK1U9mnEE9n6vC-10" target="lOS8NXBK1U9mnEE9n6vC-14">
          <mxGeometry relative="1" as="geometry" />
        </mxCell>
        <mxCell id="lOS8NXBK1U9mnEE9n6vC-10" value="OTP" style="whiteSpace=wrap;html=1;" vertex="1" parent="WIyWlLk6GJQsqaUBKTNV-1">
          <mxGeometry x="570" y="280" width="120" height="70" as="geometry" />
        </mxCell>
        <mxCell id="lOS8NXBK1U9mnEE9n6vC-17" value="" style="edgeStyle=orthogonalEdgeStyle;rounded=0;orthogonalLoop=1;jettySize=auto;html=1;" edge="1" parent="WIyWlLk6GJQsqaUBKTNV-1" source="lOS8NXBK1U9mnEE9n6vC-14" target="lOS8NXBK1U9mnEE9n6vC-16">
          <mxGeometry relative="1" as="geometry" />
        </mxCell>
        <mxCell id="lOS8NXBK1U9mnEE9n6vC-18" value="" style="edgeStyle=orthogonalEdgeStyle;rounded=0;orthogonalLoop=1;jettySize=auto;html=1;" edge="1" parent="WIyWlLk6GJQsqaUBKTNV-1" source="lOS8NXBK1U9mnEE9n6vC-14" target="lOS8NXBK1U9mnEE9n6vC-16">
          <mxGeometry relative="1" as="geometry" />
        </mxCell>
        <mxCell id="lOS8NXBK1U9mnEE9n6vC-19" value="" style="edgeStyle=orthogonalEdgeStyle;rounded=0;orthogonalLoop=1;jettySize=auto;html=1;" edge="1" parent="WIyWlLk6GJQsqaUBKTNV-1" source="lOS8NXBK1U9mnEE9n6vC-14" target="lOS8NXBK1U9mnEE9n6vC-16">
          <mxGeometry relative="1" as="geometry" />
        </mxCell>
        <mxCell id="lOS8NXBK1U9mnEE9n6vC-23" value="" style="edgeStyle=orthogonalEdgeStyle;rounded=0;orthogonalLoop=1;jettySize=auto;html=1;" edge="1" parent="WIyWlLk6GJQsqaUBKTNV-1" source="lOS8NXBK1U9mnEE9n6vC-16" target="lOS8NXBK1U9mnEE9n6vC-22">
          <mxGeometry relative="1" as="geometry" />
        </mxCell>
        <mxCell id="lOS8NXBK1U9mnEE9n6vC-14" value="SELECT OUTLETS" style="whiteSpace=wrap;html=1;" vertex="1" parent="WIyWlLk6GJQsqaUBKTNV-1">
          <mxGeometry x="770" y="285" width="120" height="60" as="geometry" />
        </mxCell>
        <mxCell id="lOS8NXBK1U9mnEE9n6vC-29" value="" style="edgeStyle=orthogonalEdgeStyle;rounded=0;orthogonalLoop=1;jettySize=auto;html=1;" edge="1" parent="WIyWlLk6GJQsqaUBKTNV-1" source="lOS8NXBK1U9mnEE9n6vC-22" target="lOS8NXBK1U9mnEE9n6vC-28">
          <mxGeometry relative="1" as="geometry" />
        </mxCell>
        <mxCell id="lOS8NXBK1U9mnEE9n6vC-31" value="" style="edgeStyle=orthogonalEdgeStyle;rounded=0;orthogonalLoop=1;jettySize=auto;html=1;" edge="1" parent="WIyWlLk6GJQsqaUBKTNV-1" source="lOS8NXBK1U9mnEE9n6vC-22" target="lOS8NXBK1U9mnEE9n6vC-30">
          <mxGeometry relative="1" as="geometry" />
        </mxCell>
        <mxCell id="lOS8NXBK1U9mnEE9n6vC-22" value="&lt;div&gt;ORDERS&lt;/div&gt;" style="whiteSpace=wrap;html=1;" vertex="1" parent="WIyWlLk6GJQsqaUBKTNV-1">
          <mxGeometry x="980" y="170" width="120" height="60" as="geometry" />
        </mxCell>
        <mxCell id="lOS8NXBK1U9mnEE9n6vC-24" value="" style="edgeStyle=orthogonalEdgeStyle;rounded=0;orthogonalLoop=1;jettySize=auto;html=1;" edge="1" parent="WIyWlLk6GJQsqaUBKTNV-1" source="lOS8NXBK1U9mnEE9n6vC-14" target="lOS8NXBK1U9mnEE9n6vC-16">
          <mxGeometry relative="1" as="geometry">
            <mxPoint x="890" y="315" as="sourcePoint" />
            <mxPoint x="1030" y="280" as="targetPoint" />
          </mxGeometry>
        </mxCell>
        <mxCell id="lOS8NXBK1U9mnEE9n6vC-16" value="EMPLOYEES&lt;div&gt;&lt;br&gt;&lt;/div&gt;" style="whiteSpace=wrap;html=1;" vertex="1" parent="WIyWlLk6GJQsqaUBKTNV-1">
          <mxGeometry x="980" y="370" width="120" height="60" as="geometry" />
        </mxCell>
        <mxCell id="lOS8NXBK1U9mnEE9n6vC-33" value="" style="edgeStyle=orthogonalEdgeStyle;rounded=0;orthogonalLoop=1;jettySize=auto;html=1;" edge="1" parent="WIyWlLk6GJQsqaUBKTNV-1" source="lOS8NXBK1U9mnEE9n6vC-28" target="lOS8NXBK1U9mnEE9n6vC-32">
          <mxGeometry relative="1" as="geometry" />
        </mxCell>
        <mxCell id="lOS8NXBK1U9mnEE9n6vC-35" value="" style="edgeStyle=orthogonalEdgeStyle;rounded=0;orthogonalLoop=1;jettySize=auto;html=1;" edge="1" parent="WIyWlLk6GJQsqaUBKTNV-1" source="lOS8NXBK1U9mnEE9n6vC-28" target="lOS8NXBK1U9mnEE9n6vC-34">
          <mxGeometry relative="1" as="geometry" />
        </mxCell>
        <mxCell id="lOS8NXBK1U9mnEE9n6vC-28" value="ONLINE" style="whiteSpace=wrap;html=1;" vertex="1" parent="WIyWlLk6GJQsqaUBKTNV-1">
          <mxGeometry x="1180" y="60" width="120" height="60" as="geometry" />
        </mxCell>
        <mxCell id="lOS8NXBK1U9mnEE9n6vC-30" value="OFFLINE" style="whiteSpace=wrap;html=1;" vertex="1" parent="WIyWlLk6GJQsqaUBKTNV-1">
          <mxGeometry x="1180" y="280" width="120" height="60" as="geometry" />
        </mxCell>
        <mxCell id="lOS8NXBK1U9mnEE9n6vC-32" value="SNEACO&lt;div&gt;&lt;br&gt;&lt;/div&gt;" style="whiteSpace=wrap;html=1;" vertex="1" parent="WIyWlLk6GJQsqaUBKTNV-1">
          <mxGeometry x="1360" y="-40" width="120" height="60" as="geometry" />
        </mxCell>
        <mxCell id="lOS8NXBK1U9mnEE9n6vC-37" value="" style="edgeStyle=orthogonalEdgeStyle;rounded=0;orthogonalLoop=1;jettySize=auto;html=1;" edge="1" parent="WIyWlLk6GJQsqaUBKTNV-1" source="lOS8NXBK1U9mnEE9n6vC-34" target="lOS8NXBK1U9mnEE9n6vC-36">
          <mxGeometry relative="1" as="geometry" />
        </mxCell>
        <mxCell id="lOS8NXBK1U9mnEE9n6vC-44" value="" style="edgeStyle=orthogonalEdgeStyle;rounded=0;orthogonalLoop=1;jettySize=auto;html=1;" edge="1" parent="WIyWlLk6GJQsqaUBKTNV-1" source="lOS8NXBK1U9mnEE9n6vC-34" target="lOS8NXBK1U9mnEE9n6vC-36">
          <mxGeometry relative="1" as="geometry" />
        </mxCell>
        <mxCell id="lOS8NXBK1U9mnEE9n6vC-46" value="" style="edgeStyle=orthogonalEdgeStyle;rounded=0;orthogonalLoop=1;jettySize=auto;html=1;" edge="1" parent="WIyWlLk6GJQsqaUBKTNV-1" source="lOS8NXBK1U9mnEE9n6vC-34" target="lOS8NXBK1U9mnEE9n6vC-45">
          <mxGeometry relative="1" as="geometry" />
        </mxCell>
        <mxCell id="lOS8NXBK1U9mnEE9n6vC-34" value="OTHERS" style="whiteSpace=wrap;html=1;" vertex="1" parent="WIyWlLk6GJQsqaUBKTNV-1">
          <mxGeometry x="1360" y="150" width="120" height="60" as="geometry" />
        </mxCell>
        <mxCell id="lOS8NXBK1U9mnEE9n6vC-39" value="" style="edgeStyle=orthogonalEdgeStyle;rounded=0;orthogonalLoop=1;jettySize=auto;html=1;" edge="1" parent="WIyWlLk6GJQsqaUBKTNV-1" source="lOS8NXBK1U9mnEE9n6vC-36" target="lOS8NXBK1U9mnEE9n6vC-38">
          <mxGeometry relative="1" as="geometry" />
        </mxCell>
        <mxCell id="lOS8NXBK1U9mnEE9n6vC-43" value="" style="edgeStyle=orthogonalEdgeStyle;rounded=0;orthogonalLoop=1;jettySize=auto;html=1;" edge="1" parent="WIyWlLk6GJQsqaUBKTNV-1" source="lOS8NXBK1U9mnEE9n6vC-36" target="lOS8NXBK1U9mnEE9n6vC-42">
          <mxGeometry relative="1" as="geometry" />
        </mxCell>
        <mxCell id="lOS8NXBK1U9mnEE9n6vC-36" value="SERVICE" style="whiteSpace=wrap;html=1;" vertex="1" parent="WIyWlLk6GJQsqaUBKTNV-1">
          <mxGeometry x="1730" y="150" width="120" height="60" as="geometry" />
        </mxCell>
        <mxCell id="lOS8NXBK1U9mnEE9n6vC-38" value="ITEMS" style="whiteSpace=wrap;html=1;" vertex="1" parent="WIyWlLk6GJQsqaUBKTNV-1">
          <mxGeometry x="1890" y="30" width="120" height="60" as="geometry" />
        </mxCell>
        <mxCell id="lOS8NXBK1U9mnEE9n6vC-42" value="TOTAL BILL" style="whiteSpace=wrap;html=1;" vertex="1" parent="WIyWlLk6GJQsqaUBKTNV-1">
          <mxGeometry x="1890" y="270" width="120" height="60" as="geometry" />
        </mxCell>
        <mxCell id="lOS8NXBK1U9mnEE9n6vC-45" value="STATUS" style="whiteSpace=wrap;html=1;" vertex="1" parent="WIyWlLk6GJQsqaUBKTNV-1">
          <mxGeometry x="1560" y="150" width="120" height="60" as="geometry" />
        </mxCell>
        <mxCell id="lOS8NXBK1U9mnEE9n6vC-47" value="&lt;font color=&quot;#ff9999&quot;&gt;PICKUP,&lt;/font&gt;&lt;div&gt;&lt;font color=&quot;#ff9999&quot;&gt;PENDING(NOT STARTED),&lt;/font&gt;&lt;/div&gt;&lt;div&gt;&lt;font color=&quot;#ff9999&quot;&gt;IN PROCESS,&lt;br&gt;&lt;/font&gt;&lt;div&gt;&lt;font color=&quot;#ff9999&quot;&gt;COMPLETE,&lt;/font&gt;&lt;/div&gt;&lt;/div&gt;&lt;div&gt;&lt;font color=&quot;#ff9999&quot;&gt;DELIVERED&lt;/font&gt;&lt;/div&gt;" style="whiteSpace=wrap;html=1;aspect=fixed;" vertex="1" parent="WIyWlLk6GJQsqaUBKTNV-1">
          <mxGeometry x="1530" y="250" width="180" height="180" as="geometry" />
        </mxCell>
      </root>
    </mxGraphModel>
  </diagram>
</mxfile>
